<svg width="320" height="44" viewBox="0 0 320 44" fill="none" xmlns="http://www.w3.org/2000/svg">
<path d="M319 22C319 22.9955 318.255 24.2173 316.192 25.6037C314.173 26.9603 311.131 28.3077 307.117 29.6124C299.104 32.2173 287.457 34.578 273.001 36.5657C244.104 40.539 204.152 43 160 43C115.848 43 75.8958 40.539 46.9991 36.5657C32.5434 34.578 20.8958 32.2173 12.8828 29.6124C8.86938 28.3077 5.82721 26.9603 3.80836 25.6037C1.74507 24.2173 1 22.9955 1 22C1 21.0045 1.74507 19.7827 3.80836 18.3963C5.82721 17.0397 8.86938 15.6923 12.8828 14.3876C20.8958 11.7827 32.5434 9.42199 46.9991 7.43433C75.8958 3.46104 115.848 1 160 1C204.152 1 244.104 3.46104 273.001 7.43433C287.457 9.42199 299.104 11.7827 307.117 14.3876C311.131 15.6923 314.173 17.0397 316.192 18.3963C318.255 19.7827 319 21.0045 319 22Z" stroke="#323232" stroke-width="2"/>
</svg>
